<?xml version="1.0" encoding="UTF-8" standalone="no"?>
<!-- Creator: CorelDRAW -->

<svg
   xml:space="preserve"
   width="300"
   height="300"
   shape-rendering="geometricPrecision"
   text-rendering="geometricPrecision"
   image-rendering="optimizeQuality"
   fill-rule="evenodd"
   clip-rule="evenodd"
   viewBox="0 0 300 300"
   version="1.1"
   id="svg6"
   sodipodi:docname="rpicam-gui_button.svg"
   inkscape:version="1.3.2 (091e20e, 2023-11-25, custom)"
   xmlns:inkscape="http://www.inkscape.org/namespaces/inkscape"
   xmlns:sodipodi="http://sodipodi.sourceforge.net/DTD/sodipodi-0.dtd"
   xmlns="http://www.w3.org/2000/svg"
   xmlns:svg="http://www.w3.org/2000/svg"><sodipodi:namedview
   id="namedview6"
   pagecolor="#ffffff"
   bordercolor="#000000"
   borderopacity="0.25"
   inkscape:showpageshadow="2"
   inkscape:pageopacity="0.0"
   inkscape:pagecheckerboard="true"
   inkscape:deskcolor="#d1d1d1"
   showgrid="false"
   inkscape:zoom="1.6733333"
   inkscape:cx="150.59761"
   inkscape:cy="150"
   inkscape:window-width="1280"
   inkscape:window-height="698"
   inkscape:window-x="954"
   inkscape:window-y="-6"
   inkscape:window-maximized="1"
   inkscape:current-layer="svg6" />
 <defs
   id="defs6">
    <mask
   id="id0">
      <linearGradient
   id="id1"
   gradientUnits="userSpaceOnUse"
   x1="205.30299"
   y1="62.138401"
   x2="146.543"
   y2="145.951">
       <stop
   offset="0"
   stop-opacity="1"
   stop-color="white"
   id="stop1" />
       <stop
   offset="1"
   stop-opacity="0"
   stop-color="white"
   id="stop2" />
      </linearGradient>
     <rect
   fill="url(#id1)"
   x="109.599"
   y="46.145401"
   width="132.64799"
   height="115.798"
   id="rect2" />
    </mask>
    <mask
   id="id2">
      <linearGradient
   id="id3"
   gradientUnits="userSpaceOnUse"
   x1="112.292"
   y1="218.64999"
   x2="133.425"
   y2="173.261">
       <stop
   offset="0"
   stop-opacity="1"
   stop-color="white"
   id="stop3" />
       <stop
   offset="1"
   stop-opacity="0"
   stop-color="white"
   id="stop4" />
      </linearGradient>
     <rect
   fill="url(#id3)"
   x="90.487297"
   y="167.688"
   width="64.742203"
   height="56.5355"
   id="rect4" />
    </mask>
    <mask
   id="id4">
      <linearGradient
   id="id5"
   gradientUnits="userSpaceOnUse"
   x1="195.36099"
   y1="76.318497"
   x2="156.48399"
   y2="131.771">
       <stop
   offset="0"
   stop-opacity="1"
   stop-color="white"
   id="stop5" />
       <stop
   offset="1"
   stop-opacity="0"
   stop-color="white"
   id="stop6" />
      </linearGradient>
     <rect
   fill="url(#id5)"
   x="131.996"
   y="65.692398"
   width="87.852997"
   height="76.704697"
   id="rect6" />
    </mask>
 </defs>
 <g
   id="Ebene_x0020_1"
   inkscape:label="Ebene 1"
   inkscape:groupmode="layer"
   transform="translate(0.5287295,-0.0802705)">
  <metadata
   id="CorelCorpID_0Corel-Layer" />
  <g
   id="_159562408">
   <circle
   id="_158721624"
   fill="#4d4948"
   transform="matrix(21.3457,12.324,-12.324,21.3457,149.391,150)"
   r="6.0824499"
   cx="0"
   cy="0" />
   <circle
   id="_158723160"
   fill="#1f1a17"
   transform="matrix(20.7202,11.9628,-11.9628,20.7202,149.391,150)"
   r="6.0824499"
   cx="0"
   cy="0" />
   <circle
   id="_158722152"
   fill="#72706f"
   transform="matrix(19.4692,11.2405,-11.2405,19.4692,149.391,150)"
   r="6.0824499"
   cx="0"
   cy="0" />
   <circle
   id="_158722968"
   fill="#383431"
   transform="matrix(18.2963,10.5634,-10.5634,18.2963,149.391,150)"
   r="6.0824499"
   cx="0"
   cy="0" />
   <circle
   id="_158723208"
   fill="#1f1a17"
   transform="matrix(15.7943,9.11883,-9.11883,15.7943,149.391,150)"
   r="6.0824499"
   cx="0"
   cy="0" />
   <circle
   id="_158722656"
   fill="#71625b"
   transform="matrix(15.0906,8.71254,-8.71254,15.0906,149.391,150)"
   r="6.0824499"
   cx="0"
   cy="0" />
   <circle
   id="_158722080"
   fill="#974578"
   transform="matrix(13.3704,7.71941,-7.7194,13.3704,149.391,150)"
   r="6.0824499"
   cx="0"
   cy="0" />
   <circle
   id="_158723280"
   fill="#ef9ba0"
   transform="matrix(9.6955,5.5977,-5.5977,9.6955,149.391,150)"
   r="6.0824499"
   cx="0"
   cy="0" />
   <circle
   id="_159562720"
   fill="#969594"
   transform="matrix(7.89714,4.55941,-4.55941,7.89714,149.391,150)"
   r="6.0824499"
   cx="0"
   cy="0" />
   <circle
   id="_159561400"
   fill="#838281"
   transform="matrix(5.2387,3.02456,-3.02456,5.2387,149.391,150)"
   r="6.0824499"
   cx="0"
   cy="0" />
   <circle
   id="_159562840"
   fill="#605d5c"
   transform="matrix(3.12758,1.80571,-1.80571,3.12758,149.391,150)"
   r="6.0824499"
   cx="0"
   cy="0" />
   <circle
   id="_159562864"
   fill="#383431"
   transform="matrix(1.32922,0.767426,-0.767426,1.32922,149.391,150)"
   r="6.0824499"
   cx="0"
   cy="0" />
   <path
   id="_159562792"
   fill="#ffffff"
   stroke="#ffffff"
   stroke-width="0.263672"
   mask="url(#id0)"
   d="m 202.455,58.0895 c 33.4805,19.3301 48.7503,55.5846 34.0992,80.9608 -14.6508,25.3758 -53.6825,30.279 -87.1637,10.95 C 115.91,130.6699 100.6409,94.415 115.2917,69.0391 129.9425,43.6629 168.9749,38.7594 202.455,58.0894 Z" />
   <path
   id="_159561448"
   fill="#ffffff"
   stroke="#ffffff"
   stroke-width="0.263672"
   mask="url(#id2)"
   d="m 109.936,218.338 c 16.3065,9.41503 35.3179,7.02641 42.4533,-5.3333 7.1361,-12.3594 -0.30174,-30.0178 -16.6075,-39.4321 -16.3072,-9.41468 -35.3186,-7.02607 -42.454,5.3333 -7.13541,12.3594 0.301389,30.0174 16.6082,39.4321 z" />
   <path
   id="_159562432"
   fill="#ffffff"
   stroke="#ffffff"
   stroke-width="0.263672"
   mask="url(#id4)"
   d="m 193.477,73.6399 c 22.1516,12.7891 32.2545,36.7764 22.5609,53.5659 -9.69358,16.7889 -35.5179,20.0335 -57.6698,7.24406 -22.1519,-12.7891 -32.2542,-36.7764 -22.5613,-53.5656 9.69358,-16.7899 35.5186,-20.0342 57.6701,-7.24441 z" />
  </g>
  <g
   id="_159561880">
   <path
   id="_159562384"
   fill="#e77844"
   d="m 197.615,80.092 c -0.64292,-1.92944 -1.28618,-4.07308 -2.35817,-5.78798 -0.85745,-1.50072 -3.00109,-2.57271 -3.42981,-4.28761 -0.64292,-1.9291 2.14363,-6.85963 4.28761,-6.00217 3.644,1.50037 3.42981,9.64652 3.42981,12.6476 0,0.428727 0,2.7869 -0.21454,3.00143 -0.21419,0.21419 -1.28618,0.428727 -1.71491,0.428727 z" />
   <path
   id="_159561640"
   fill="#e77844"
   d="m 209.341,80.783 c -0.12699,-2.18239 -0.44049,-6.12259 0.0993,-8.42816 0.39101,-1.24396 2.26786,-2.27962 2.81146,-3.06925 1.57165,-1.94432 2.14087,-4.46201 5.0198,-4.9243 4.90873,-1.04327 -1.67857,7.34095 -1.98031,7.94823 -1.20625,2.42841 -1.40314,8.46173 -5.95027,8.47349 z" />
   <path
   id="_159562816"
   fill="#e77844"
   d="m 192.453,85.1571 c -2.12529,-1.46473 -4.91565,-3.06303 -7.25375,-4.50146 -2.09934,-1.25192 -4.88762,-4.57862 -7.2015,-4.07584 -7.1278,1.74709 -3.62393,7.36102 1.56092,7.3669 1.06368,-0.131836 2.31388,-0.502776 3.37756,-0.634612 1.27649,-0.158134 3.21562,1.5457 4.73122,1.57407 1.30279,0.05467 3.26995,0.24291 4.78554,0.270939 z" />
   <path
   id="_159561688"
   fill="#e77844"
   d="m 218.183,87.8018 c 1.50902,-3.14676 1.77165,-3.29832 4.77067,-5.38002 1.63048,-1.11628 9.16347,-6.86551 11.5926,-5.99283 1.60106,0.650876 1.91526,3.62013 1.31974,5.01427 -1.24639,2.99486 -9.62922,3.63397 -12.2954,4.47308 -0.93912,0.192045 -4.03432,1.80418 -5.38763,1.8855 z" />
   <path
   id="_159562960"
   fill="#e77844"
   d="m 203.027,107.228 c -6.32086,-4.42464 -6.32086,-4.42464 -7.5849,-6.95305 0,-33.0493 39.5508,3.97307 7.5849,6.95305 z M 78.144,161.949 c -18.1498,-11.5583 -5.05648,-44.1561 14.448,-26.4575 0,15.712 3.79245,26.4575 -14.448,26.4575 z m 119.194,18.2401 c 0.18063,-24.29 -14.8992,-61.5833 13.8158,-64.2021 7.76552,6.23055 5.77899,103.392 -13.8158,64.2021 z m -55.8047,4.96652 c -30.0693,-3.70214 -24.6513,-91.2918 -0.9931,-67.6336 1.7156,66.3696 22.8454,62.1256 24.8319,0.36125 25.3741,-30.520898 28.5344,92.0143 -0.63184,62.8477 -6.95305,-0.45156 -15.0798,4.06339 -23.2069,4.42464 z m -66.5499,22.0329 c -65.5568,-15.2605 64.3827,-23.4775 -1.62529,-29.8887 -56.7978,-24.2904 8.3074,-87.2284 35.758,-59.7778 0,38.9186 15.712,87.3187 -34.1327,89.6665 z" />
  </g>
 </g>
</svg>
